<svg xmlns="http://www.w3.org/2000/svg" xmlns:xlink="http://www.w3.org/1999/xlink" width="1962.827" height="1510.362" viewBox="0 0 1962.827 1510.362">
  <defs>
    <linearGradient id="linear-gradient" x1="0.5" x2="0.5" y2="1" gradientUnits="objectBoundingBox">
      <stop offset="0" stop-color="#5433ff"/>
      <stop offset="1" stop-color="#5f02b1"/>
    </linearGradient>
  </defs>
  <g id="Group_914" data-name="Group 914" transform="translate(7658.246 5930.991)">
    <path id="Path_330" data-name="Path 330" d="M0,0H1925.83s-2.48,627.787.43,627.787S1910.18,621.832,0,894.139Z" transform="translate(-7636.832 -5682.139)" fill="url(#linear-gradient)"/>
    <g id="Group_903" data-name="Group 903" transform="translate(4.942 -388)" opacity="0.2">
      <path id="Path_331" data-name="Path 331" d="M90.244,0l97.1,224.013L0,124.537Z" transform="matrix(0.809, -0.588, 0.588, 0.809, -7663.188, -4555.871)" fill="#7e69f9"/>
      <path id="Path_335" data-name="Path 335" d="M90.244,224.013,187.345,0,0,99.476Z" transform="matrix(-0.809, -0.588, 0.588, -0.809, -7436.263, -4502.078)" fill="#6b52f9"/>
      <path id="Path_345" data-name="Path 345" d="M90.244,0,297.437,180.779,0,124.537Z" transform="matrix(0.809, -0.588, 0.588, 0.809, -7441.975, -4683.309)" fill="#6b52f9"/>
      <path id="Path_337" data-name="Path 337" d="M0,0,1075.013,672.208,32.839,115.335Z" transform="matrix(0.809, -0.588, 0.588, 0.809, -7370.655, -4576.457)" fill="#7e69f9"/>
      <path id="Path_332" data-name="Path 332" d="M99.392,0,203,239.034,0,134.2Z" transform="translate(-7311.429 -4926.652) rotate(169)" fill="#6b52f9"/>
      <path id="Path_334" data-name="Path 334" d="M99.392,0,203,239.033,0,134.2Z" transform="matrix(-0.656, -0.755, 0.755, -0.656, -7378.567, -4746.051)" fill="#6b52f9"/>
      <path id="Path_339" data-name="Path 339" d="M200.04,0,405.3,105.32l-65.816,93.7L0,61.643Z" transform="matrix(-0.656, -0.755, 0.755, -0.656, -7140.318, -4682.303)" fill="#7e69f9"/>
      <path id="Path_342" data-name="Path 342" d="M204.507,32.793,323.892,0,203.132,164.617,0,227.167Z" transform="matrix(-0.656, -0.755, 0.755, -0.656, -7266.53, -4568.824)" fill="#7e69f9"/>
      <path id="Path_333" data-name="Path 333" d="M115.785,184.371,0,123.427V0Z" transform="matrix(0.999, -0.035, 0.035, 0.999, -7562.898, -5120.176)" fill="#7e69f9"/>
      <path id="Path_336" data-name="Path 336" d="M115.787,0,0,60.943V184.37Z" transform="matrix(-0.999, 0.052, -0.052, -0.999, -7475.67, -4622.444)" fill="#7e69f9"/>
      <path id="Path_343" data-name="Path 343" d="M111.827,55.565,102.861,72.5,0,257.3.351,0Z" transform="translate(-7591.994 -4885.614)" fill="#6b52f9"/>
      <path id="Path_341" data-name="Path 341" d="M104.016,61.606,12.7,120.77,0,0Z" transform="translate(-7480.129 -4808.278) rotate(3)" fill="#6b52f9"/>
      <path id="Path_344" data-name="Path 344" d="M93.462,65.643,11.074,81.766,0,0Z" transform="translate(-7373.291 -4570.834) rotate(3)" fill="#6b52f9"/>
      <path id="Path_340" data-name="Path 340" d="M156.847,61.38l21.515,30.165L141.387,168.11,0,96.468V23.074L32.167,0Z" transform="translate(-7591.457 -4991.521)" fill="#6b52f9"/>
      <path id="Path_338" data-name="Path 338" d="M0,0,2.7,87.624l189.86,38.126Z" transform="matrix(-0.999, 0.052, -0.052, -0.999, -7371.672, -4488.3)" fill="#6b52f9"/>
    </g>
    <g id="Group_906" data-name="Group 906" transform="translate(-18.135 24.697)" opacity="0.2">
      <g id="Group_904" data-name="Group 904" transform="translate(-6540.716 -5895.334)">
        <path id="Path_331-2" data-name="Path 331" d="M49.57,0l53.336,123.047L0,68.407Z" transform="matrix(-0.809, 0.588, -0.588, -0.809, 863.433, 276.409)" fill="#7e69f9"/>
        <path id="Path_335-2" data-name="Path 335" d="M49.57,123.048,102.906,0,0,54.641Z" transform="matrix(0.809, 0.588, -0.588, 0.809, 738.786, 246.862)" fill="#7e69f9"/>
        <path id="Path_345-2" data-name="Path 345" d="M49.57,0,163.378,99.3,0,68.407Z" transform="matrix(-0.809, 0.588, -0.588, -0.809, 741.923, 346.409)" fill="#7e69f9"/>
        <path id="Path_337-2" data-name="Path 337" d="M0,0,590.491,369.235,18.038,63.352Z" transform="translate(644.929 265.661) rotate(152)" fill="#6b52f9"/>
        <path id="Path_332-2" data-name="Path 332" d="M54.595,0l56.912,131.3L0,73.717Z" transform="translate(670.216 480.074) rotate(-11)" fill="#6b52f9"/>
        <path id="Path_334-2" data-name="Path 334" d="M54.595,0l56.912,131.3L0,73.717Z" transform="translate(707.094 380.872) rotate(49)" fill="#7e69f9"/>
        <path id="Path_339-2" data-name="Path 339" d="M109.88,0,222.625,57.851l-36.152,51.468L0,33.86Z" transform="translate(576.227 345.857) rotate(49)" fill="#7e69f9"/>
        <path id="Path_342-2" data-name="Path 342" d="M112.333,18.013,177.91,0,111.578,90.422,0,124.78Z" transform="translate(645.554 283.525) rotate(49)" fill="#6b52f9"/>
        <path id="Path_333-2" data-name="Path 333" d="M63.6,101.272,0,67.8V0Z" transform="matrix(-0.999, 0.035, -0.035, -0.999, 808.345, 586.374)" fill="#7e69f9"/>
        <path id="Path_336-2" data-name="Path 336" d="M63.6,0,0,33.475v67.8Z" transform="translate(760.432 312.977) rotate(-3)" fill="#7e69f9"/>
        <path id="Path_343-2" data-name="Path 343" d="M61.425,30.521l-4.925,9.3L0,141.332.193,0Z" transform="translate(824.327 457.533) rotate(180)" fill="#7e69f9"/>
        <path id="Path_341-2" data-name="Path 341" d="M57.134,33.839,6.978,66.337,0,0Z" transform="translate(762.881 415.054) rotate(-177)" fill="#7e69f9"/>
        <path id="Path_344-2" data-name="Path 344" d="M54.558,36.588,6.171,46.107,0,0Z" transform="translate(704.196 284.629) rotate(-177)" fill="#7e69f9"/>
        <path id="Path_347" data-name="Path 347" d="M53.872,5.568,19.542,1.85-.089,52.332l73.35-29.856Z" transform="translate(626.12 268.761) rotate(-3)" fill="#7e69f9"/>
        <path id="Path_348" data-name="Path 348" d="M53.961,46.764-14.614,57.346-.437,3.724,73.35,29.856Z" transform="matrix(-0.999, -0.052, 0.052, -0.999, 624.435, 325.93)" fill="#7e69f9"/>
        <path id="Path_346" data-name="Path 346" d="M22.14,20.615,5.967,174.489,0,0Z" transform="translate(650.146 241.862) rotate(-96)" fill="#7e69f9"/>
        <path id="Path_340-2" data-name="Path 340" d="M86.154,33.715,97.972,50.285,77.662,92.341,0,52.988V12.674L17.669,0Z" transform="translate(824.032 515.706) rotate(180)" fill="#7e69f9"/>
        <path id="Path_338-2" data-name="Path 338" d="M0,0,1.482,48.131,105.77,69.073Z" transform="translate(703.307 239.294) rotate(-3)" fill="#6b52f9"/>
        <path id="Path_350" data-name="Path 350" d="M629.318,245.276H648l32.656,25.471-29.027-2.107Z" transform="translate(-2 -2)" fill="#7e69f9"/>
      </g>
      <path id="Path_349" data-name="Path 349" d="M-5936.588-5676.737l61.36-1.295-17.809,23.637h-22.18Z" fill="#7e69f9"/>
    </g>
  </g>
</svg>
