<svg xmlns="http://www.w3.org/2000/svg" xmlns:xlink="http://www.w3.org/1999/xlink" width="79.513" height="79.513" viewBox="0 0 79.513 79.513">
  <defs>
    <filter id="Icon_material-group-work" x="0" y="0" width="79.513" height="79.513" filterUnits="userSpaceOnUse">
      <feOffset dy="3" input="SourceAlpha"/>
      <feGaussianBlur stdDeviation="3" result="blur"/>
      <feFlood flood-opacity="0.161"/>
      <feComposite operator="in" in2="blur"/>
      <feComposite in="SourceGraphic"/>
    </filter>
  </defs>
  <g transform="matrix(1, 0, 0, 1, 0, 0)" filter="url(#Icon_material-group-work)">
    <path id="Icon_material-group-work-2" data-name="Icon material-group-work" d="M33.756,3A30.756,30.756,0,1,0,64.513,33.756,30.768,30.768,0,0,0,33.756,3Zm-12.3,47.672a7.689,7.689,0,1,1,7.689-7.689A7.692,7.692,0,0,1,21.454,50.672Zm4.613-29.219a7.689,7.689,0,1,1,7.689,7.689A7.692,7.692,0,0,1,26.067,21.454ZM46.059,50.672a7.689,7.689,0,1,1,7.689-7.689A7.692,7.692,0,0,1,46.059,50.672Z" transform="translate(6 3)" fill="#5433ff"/>
  </g>
</svg>
