<svg xmlns="http://www.w3.org/2000/svg" xmlns:xlink="http://www.w3.org/1999/xlink" width="80.07" height="80.07" viewBox="0 0 80.07 80.07">
  <defs>
    <filter id="Icon_metro-flow-tree" x="0" y="0" width="80.07" height="80.07" filterUnits="userSpaceOnUse">
      <feOffset dy="3" input="SourceAlpha"/>
      <feGaussianBlur stdDeviation="3" result="blur"/>
      <feFlood flood-opacity="0.161"/>
      <feComposite operator="in" in2="blur"/>
      <feComposite in="SourceGraphic"/>
    </filter>
  </defs>
  <g transform="matrix(1, 0, 0, 1, 0, 0)" filter="url(#Icon_metro-flow-tree)">
    <path id="Icon_metro-flow-tree-2" data-name="Icon metro-flow-tree" d="M60.944,49.43V41.757A11.556,11.556,0,0,0,49.389,30.2h-6.6a4.954,4.954,0,0,1-4.952-4.952V17.576a7.924,7.924,0,1,0-6.6,0v7.673A4.954,4.954,0,0,1,26.277,30.2h-6.6A11.556,11.556,0,0,0,8.118,41.757V49.43a7.924,7.924,0,1,0,6.6,0V41.757A4.954,4.954,0,0,1,19.674,36.8h6.6a11.436,11.436,0,0,0,4.952-1.156V49.43a7.924,7.924,0,1,0,6.6,0V35.649A11.436,11.436,0,0,0,42.785,36.8h6.6a4.954,4.954,0,0,1,4.952,4.952V49.43a7.924,7.924,0,1,0,6.6,0ZM34.531,5.819a4.573,4.573,0,1,1-4.569,4.573A4.57,4.57,0,0,1,34.531,5.819ZM11.42,61.187a4.573,4.573,0,1,1,4.569-4.573,4.572,4.572,0,0,1-4.569,4.573Zm23.111,0A4.573,4.573,0,1,1,39.1,56.614a4.572,4.572,0,0,1-4.569,4.573Zm23.111,0a4.573,4.573,0,1,1,4.569-4.573,4.572,4.572,0,0,1-4.569,4.573Z" transform="translate(5.5 3.53)" fill="#5433ff"/>
  </g>
</svg>
