<svg xmlns="http://www.w3.org/2000/svg" xmlns:xlink="http://www.w3.org/1999/xlink" width="54.74" height="54.74" viewBox="0 0 54.74 54.74">
  <defs>
    <filter id="Path_224" x="0" y="0" width="54.74" height="54.74" filterUnits="userSpaceOnUse">
      <feOffset dy="3" input="SourceAlpha"/>
      <feGaussianBlur stdDeviation="3" result="blur"/>
      <feFlood flood-opacity="0.161"/>
      <feComposite operator="in" in2="blur"/>
      <feComposite in="SourceGraphic"/>
    </filter>
  </defs>
  <g id="instagram" transform="translate(7.5 4.5)">
    <g transform="matrix(1, 0, 0, 1, -7.5, -4.5)" filter="url(#Path_224)">
      <path id="Path_224-2" data-name="Path 224" d="M11.435,3h16.87a8.435,8.435,0,0,1,8.435,8.435v16.87a8.435,8.435,0,0,1-8.435,8.435H11.435A8.435,8.435,0,0,1,3,28.305V11.435A8.435,8.435,0,0,1,11.435,3Z" transform="translate(7.5 4.5)" fill="none" stroke="#fff" stroke-linecap="round" stroke-linejoin="round" stroke-width="3"/>
    </g>
    <path id="Path_225" data-name="Path 225" d="M25.488,17.693A6.748,6.748,0,1,1,19.8,12.008a6.748,6.748,0,0,1,5.685,5.685Z" transform="translate(1.13 1.114)" fill="none" stroke="#fff" stroke-linecap="round" stroke-linejoin="round" stroke-width="3"/>
    <path id="Path_226" data-name="Path 226" d="M26.25,9.75h0" transform="translate(2.899 0.842)" fill="none" stroke="#fff" stroke-linecap="round" stroke-linejoin="round" stroke-width="3"/>
  </g>
</svg>
